<svg width="500" height="500" viewBox="0 0 500 500" fill="none" xmlns="http://www.w3.org/2000/svg">
<g clip-path="url(#clip0_1001_18)">
<rect width="500" height="500" rx="90" fill="#111112"/>
<path d="M55.112 296V199.712H79.728V273.288H125.832V296H55.112ZM148.978 296L182.978 247.72L150.066 199.712H179.578L198.482 230.312L216.978 199.712H245.81L213.034 247.856L246.762 296H217.114L197.394 265.4L176.858 296H148.978ZM308.162 297.088C301.09 297.088 294.517 295.909 288.442 293.552C282.458 291.195 277.517 287.523 273.618 282.536C269.81 277.549 267.498 271.203 266.682 263.496H291.434C292.069 266.035 293.248 268.12 294.97 269.752C296.693 271.293 298.824 272.427 301.362 273.152C303.992 273.877 306.802 274.24 309.794 274.24C311.608 274.24 313.466 274.059 315.37 273.696C317.274 273.333 318.861 272.653 320.13 271.656C321.49 270.659 322.17 269.208 322.17 267.304C322.17 265.944 321.762 264.856 320.946 264.04C320.221 263.133 319.133 262.408 317.682 261.864C316.322 261.229 314.6 260.685 312.514 260.232C311.698 260.051 310.837 259.869 309.93 259.688C309.114 259.507 308.298 259.325 307.482 259.144C306.666 258.963 305.805 258.781 304.898 258.6C300.274 257.603 295.832 256.469 291.57 255.2C287.309 253.84 283.546 252.072 280.282 249.896C277.018 247.72 274.434 244.819 272.53 241.192C270.626 237.565 269.674 232.987 269.674 227.456C269.674 222.379 270.581 218.117 272.394 214.672C274.208 211.136 276.61 208.325 279.602 206.24C282.594 204.064 285.858 202.432 289.394 201.344C292.93 200.256 296.421 199.531 299.866 199.168C303.312 198.715 306.394 198.488 309.114 198.488C315.824 198.488 321.717 199.757 326.794 202.296C331.872 204.744 335.952 208.371 339.034 213.176C342.208 217.981 344.112 223.784 344.746 230.584H320.946C320.674 228.589 319.858 226.912 318.498 225.552C317.138 224.101 315.37 223.013 313.194 222.288C311.109 221.472 308.661 221.064 305.85 221.064C304.218 221.064 302.677 221.2 301.226 221.472C299.776 221.744 298.506 222.152 297.418 222.696C296.421 223.24 295.605 223.92 294.97 224.736C294.336 225.552 294.018 226.504 294.018 227.592C294.018 229.043 294.562 230.267 295.65 231.264C296.829 232.261 298.506 233.123 300.682 233.848C302.949 234.573 305.714 235.344 308.978 236.16C310.52 236.523 312.016 236.885 313.466 237.248C314.917 237.52 316.368 237.837 317.818 238.2C321.808 239.107 325.525 240.149 328.97 241.328C332.506 242.507 335.589 244.048 338.218 245.952C340.938 247.856 343.069 250.44 344.61 253.704C346.152 256.877 346.922 260.957 346.922 265.944C346.922 271.656 345.834 276.507 343.658 280.496C341.482 284.395 338.536 287.568 334.818 290.016C331.101 292.464 326.93 294.277 322.306 295.456C317.682 296.544 312.968 297.088 308.162 297.088ZM399.047 296V222.56H370.487V199.712H452.36V222.56H423.663V296H399.047Z" fill="#F4A000"/>
</g>
<defs>
<clipPath id="clip0_1001_18">
<rect width="500" height="500" fill="white"/>
</clipPath>
</defs>
</svg>
