<svg width="256" height="256" viewBox="0 0 256 256" fill="none" xmlns="http://www.w3.org/2000/svg">
<g clip-path="url(#clip0_1003_2)">
<rect width="256" height="260" rx="65" fill="#050505"/>
<rect x="28" y="29" width="200" height="202" rx="58" stroke="#F4A000" stroke-width="14"/>
<path d="M90.272 171.088C87.9147 171.088 85.9653 170.317 84.424 168.776C82.8827 167.235 82.112 165.285 82.112 162.928C82.112 160.571 82.8827 158.621 84.424 157.08C85.9653 155.539 87.9147 154.768 90.272 154.768C92.6293 154.768 94.5787 155.539 96.12 157.08C97.6613 158.621 98.432 160.571 98.432 162.928C98.432 165.285 97.6613 167.235 96.12 168.776C94.5787 170.317 92.6293 171.088 90.272 171.088ZM139.627 170.816C136.363 170.816 133.19 170.408 130.107 169.592C127.115 168.685 124.395 167.371 121.947 165.648C119.59 163.835 117.686 161.613 116.235 158.984C114.875 156.264 114.195 153.136 114.195 149.6C114.195 145.52 114.921 142.075 116.371 139.264C117.913 136.453 119.953 134.232 122.491 132.6C125.03 130.968 127.977 129.789 131.331 129.064C134.686 128.339 138.177 127.976 141.803 127.976H162.883C162.883 123.896 162.294 120.36 161.115 117.368C160.027 114.376 158.214 112.064 155.675 110.432C153.137 108.709 149.782 107.848 145.611 107.848C143.073 107.848 140.715 108.12 138.539 108.664C136.363 109.208 134.505 110.069 132.963 111.248C131.422 112.427 130.289 114.013 129.563 116.008H117.187C117.822 112.744 119.046 109.979 120.859 107.712C122.763 105.355 125.03 103.451 127.659 102C130.379 100.459 133.281 99.3253 136.363 98.6C139.446 97.8747 142.529 97.512 145.611 97.512C155.947 97.512 163.291 100.549 167.643 106.624C171.995 112.699 174.171 120.904 174.171 131.24V170H164.515L163.835 160.888C161.841 163.608 159.438 165.693 156.627 167.144C153.817 168.595 150.915 169.547 147.923 170C145.022 170.544 142.257 170.816 139.627 170.816ZM140.715 160.616C145.249 160.616 149.147 159.891 152.411 158.44C155.766 156.899 158.35 154.677 160.163 151.776C161.977 148.875 162.883 145.339 162.883 141.168V137.632H150.235C147.243 137.632 144.297 137.677 141.395 137.768C138.494 137.859 135.865 138.221 133.507 138.856C131.15 139.491 129.246 140.579 127.795 142.12C126.435 143.661 125.755 145.883 125.755 148.784C125.755 151.504 126.435 153.725 127.795 155.448C129.246 157.171 131.105 158.485 133.371 159.392C135.729 160.208 138.177 160.616 140.715 160.616Z" fill="white"/>
</g>
<defs>
<clipPath id="clip0_1003_2">
<rect width="256" height="256" fill="white"/>
</clipPath>
</defs>
</svg>
